<?xml version="1.0" encoding="UTF-8"?>
<svg version="1.1" xmlns="http://www.w3.org/2000/svg" width="2000" height="2000">
<path d="M0 0 C660 0 1320 0 2000 0 C2000 660 2000 1320 2000 2000 C1340 2000 680 2000 0 2000 C0 1340 0 680 0 0 Z " fill="#FEFEFE" transform="translate(0,0)"/>
<path d="M0 0 C7.87500105 6.7500009 7.87500105 6.7500009 10.44550398 9.32036014 C11.03761695 9.91001461 11.62972992 10.49966908 12.23978571 11.10719187 C12.86697328 11.73677018 13.49416085 12.36634849 14.1403541 13.01500493 C14.82845062 13.70169914 15.51654715 14.38839335 16.22549508 15.09589647 C18.53107652 17.39799765 20.83308234 19.70364089 23.13512325 22.00928211 C24.81097792 23.68409357 26.48705157 25.35868593 28.16332439 27.03307888 C31.81904253 30.68570867 35.47320133 34.33989103 39.12600105 37.99543909 C44.59430548 43.46783924 50.06549467 48.93734858 55.53724628 54.40630168 C64.86270846 63.72716392 74.18579436 73.05039973 83.50759125 82.37492752 C92.95468468 91.82477171 102.40286197 101.27353023 111.85236549 110.72096443 C112.44908848 111.31755825 113.04581147 111.91415206 113.66061697 112.52882447 C116.09094674 114.95862098 118.52128423 117.38840976 120.95163152 119.81818875 C143.59049845 142.4517656 166.22689857 165.08780805 188.86172295 187.72542763 C189.53249371 188.39628119 190.20326448 189.06713475 190.89436163 189.7583172 C191.56620033 190.43023884 192.23803904 191.10216048 192.9302365 191.79444337 C213.38527428 212.25200278 233.84124579 232.70862797 254.29814339 253.16432762 C255.66720009 254.53330684 257.03625662 255.90228622 258.405313 257.27126577 C263.90670352 262.77234583 269.40809814 268.27342178 274.90949875 273.77449175 C290.28828432 289.15236027 305.66689665 304.53040203 321.04537296 319.90857983 C321.74569263 320.60888584 322.44601229 321.30919186 323.16755376 322.03071928 C345.48606121 344.34881738 367.80380024 366.66768372 390.1210165 388.98707294 C391.20695747 390.07311929 391.20695747 390.07311929 392.31483665 391.18110596 C404.07209101 402.93950533 415.82930816 414.69794192 427.58652216 426.45638165 C474.23449482 473.10921237 520.88501001 519.75949912 567.5378418 566.4074707 C579.29743915 578.16584693 591.05703146 589.9242282 602.8165884 601.68264484 C603.90262261 602.76857338 603.90262261 602.76857338 605.01059691 603.87643987 C627.31176247 626.17545035 649.61230823 648.47508052 671.91217899 670.77538586 C672.96174891 671.82497615 672.96174891 671.82497615 674.03252225 672.89577028 C689.38981555 688.25337601 704.74694829 703.61114229 720.10393611 718.96905348 C725.59824539 724.46369192 731.09256271 729.95832231 736.58688232 735.4529504 C737.95378655 736.81993202 739.3206901 738.1869143 740.68759299 739.55389726 C761.14338957 760.01088889 781.60029374 780.46677237 802.05794934 800.92190491 C803.06497484 801.92880622 803.06497484 801.92880622 804.09234428 802.95604897 C804.76246196 803.62608396 805.43257964 804.29611896 806.12300392 804.98645805 C828.68751768 827.54821812 851.25015343 850.11185476 873.8106482 872.67763362 C876.22957217 875.09710998 878.64850398 877.5165785 881.06744194 879.93604088 C881.66111449 880.52984363 882.25478704 881.12364639 882.86644966 881.73544317 C892.29394004 891.16491143 901.72311074 900.59269758 911.15296843 910.01979836 C920.40906269 919.2732573 929.66338763 928.52848252 938.91578947 937.78563349 C944.35062417 943.22315088 949.78684309 948.65927575 955.22505406 954.09341648 C959.2462201 958.11187402 963.26481583 962.1328934 967.28235649 966.15497519 C968.90977744 967.78341363 970.53805917 969.41099233 972.16724866 971.03766141 C974.35948737 973.2267459 976.54869179 975.4188182 978.73709005 977.61174089 C979.38101281 978.25327291 980.02493558 978.89480493 980.68837115 979.55577731 C985 983.88584429 985 983.88584429 985 985 C659.95 985 334.9 985 0 985 C0 659.95 0 334.9 0 0 Z " fill="#FEFEFE" transform="translate(0,1015)"/>
<path d="M0 0 C0 322.74 0 645.48 0 978 C-322.74 978 -645.48 978 -978 978 C-971.2499991 970.12499895 -971.2499991 970.12499895 -968.69805462 967.57291079 C-968.11252029 966.98491796 -967.52698596 966.39692513 -966.92370817 965.79111433 C-966.29874463 965.16854154 -965.6737811 964.54596874 -965.02987927 963.90453011 C-964.00712945 962.87967681 -964.00712945 962.87967681 -962.96371801 961.8341194 C-960.67818566 959.54510712 -958.38911179 957.25967017 -956.10003948 954.97419834 C-954.43716602 953.31028166 -952.77451167 951.646146 -951.1120567 949.9818112 C-947.00777762 945.87403697 -942.90117401 941.76859703 -938.79359911 937.66411867 C-933.83874455 932.71273255 -928.88681619 927.75842373 -923.93497193 922.80402732 C-914.68089439 913.54534994 -905.42444342 904.28904875 -896.16670036 895.03403664 C-886.78458356 885.65467063 -877.40355248 876.27422072 -868.02384567 866.89244461 C-867.13535933 866.00376451 -867.13535933 866.00376451 -866.22892377 865.09713127 C-863.81651515 862.68418939 -861.40411426 860.27123979 -858.99172316 857.85828039 C-836.52029947 835.38156667 -814.04641024 812.90731969 -791.57094383 790.43464851 C-790.5718787 789.43570758 -790.5718787 789.43570758 -789.55263044 788.41658602 C-788.88552658 787.74956509 -788.21842272 787.08254416 -787.53110359 786.39531047 C-767.22011988 766.08684838 -746.91007039 745.77745256 -726.60094643 725.46713066 C-725.24176966 724.10787641 -723.88259273 722.74862233 -722.52341564 721.3893684 C-717.06172421 715.92736652 -711.60003688 710.46536053 -706.13835555 705.00334855 C-690.87060533 689.73468128 -675.60268187 674.46618725 -660.33462238 659.19782925 C-659.63933155 658.50252477 -658.94404071 657.80722029 -658.22768046 657.09084597 C-636.06946911 634.93222529 -613.91048953 612.774373 -591.75098705 590.6170435 C-591.03214453 589.89827122 -590.313302 589.17949894 -589.57267637 588.43894569 C-577.89854115 576.76595547 -566.22436871 565.09300247 -554.55019312 553.42005262 C-508.23159659 507.10631415 -461.91554405 460.79003314 -415.60180664 414.47143555 C-403.9276513 402.79605908 -392.25349091 391.12068766 -380.57929516 379.4453516 C-379.86052807 378.72651407 -379.14176099 378.00767653 -378.40121308 377.26705604 C-356.26191755 355.12560542 -334.12200232 332.98477461 -311.98141193 310.8446188 C-311.28669661 310.14991706 -310.59198129 309.45521532 -309.87621398 308.73946201 C-294.62860271 293.49216317 -279.38083089 278.24502489 -264.13291416 262.99803153 C-258.67762986 257.54307639 -253.2223536 252.08811321 -247.76707965 246.63314772 C-246.40988897 245.27603444 -245.05269763 243.91892183 -243.69550561 242.56180989 C-223.38506381 222.25256313 -203.07573016 201.94220879 -182.76714744 181.63110302 C-182.10069004 180.96456283 -181.43423265 180.29802263 -180.74757957 179.61128426 C-180.08234591 178.94596791 -179.41711224 178.28065156 -178.73171997 177.5951741 C-156.33163007 155.19233051 -133.92966361 132.79136493 -111.52555492 110.39254034 C-109.12341234 107.99095016 -106.72127761 105.58935213 -104.31914902 103.18774796 C-103.72960048 102.59832962 -103.14005194 102.00891129 -102.53263829 101.4016318 C-93.17073726 92.04170865 -83.81051835 82.68010519 -74.45098479 73.31781473 C-65.26384375 64.12803836 -56.07493643 54.94003133 -46.88410337 45.75394739 C-41.48554545 40.35807216 -36.08838008 34.96081275 -30.69319882 29.56156125 C-26.70354425 25.56919816 -22.71132784 21.57940542 -18.71804902 17.59066771 C-17.10127991 15.97491609 -15.48537053 14.3583037 -13.87037079 12.74078355 C-11.69698079 10.56423929 -9.5206031 8.39072953 -7.34337491 6.21802574 C-6.70645766 5.57871775 -6.06954041 4.93940976 -5.41332264 4.28072881 C-1.11415571 0 -1.11415571 0 0 0 Z " fill="#FEFEFE" transform="translate(2000,1022)"/>
<path d="M0 0 C320.43 0 640.86 0 971 0 C971 320.43 971 640.86 971 971 C963.12499895 964.2499991 963.12499895 964.2499991 960.59132555 961.71646939 C960.00745287 961.1350552 959.42358018 960.55364101 958.82201438 959.95460822 C958.20405636 959.33425945 957.58609834 958.71391069 956.94941431 958.07476348 C955.9318525 957.05930514 955.9318525 957.05930514 954.89373388 956.02333249 C952.62129077 953.75436896 950.35242268 951.48186447 948.08351994 949.20936108 C946.43154125 947.55842562 944.77934357 945.90770926 943.12694678 944.25719228 C939.0488228 940.1825633 934.97303295 936.10561003 930.89820482 932.02768526 C925.98254791 927.10855978 921.06396816 922.19236067 916.14530093 917.27624553 C906.95340835 908.08895271 897.76389185 898.89928657 888.57566452 889.70832825 C879.26402593 880.39393884 869.95130341 871.08063519 860.63725471 861.76865578 C860.0490709 861.18060113 859.46088709 860.59254649 858.85487952 859.98667201 C856.45932552 857.59165128 854.06376381 855.19663827 851.6681923 852.80163506 C829.35363178 830.49236453 807.04153796 808.18062853 784.73101997 785.86731529 C784.06986949 785.20608202 783.40871901 784.54484874 782.72753367 783.86357809 C782.06533051 783.201292 781.40312735 782.53900592 780.72085743 781.85665056 C760.55897105 761.69224253 740.39615091 741.52876875 720.23240471 721.36622047 C718.88295291 720.01684616 717.53350128 718.66747168 716.18404981 717.31809704 C710.76143655 711.89579424 705.33881919 706.47349555 699.91619585 701.05120285 C684.75764688 685.89357093 669.59927116 670.73576578 654.44103146 655.57782459 C653.75074216 654.88754894 653.06045286 654.19727329 652.34924571 653.4860802 C630.35051178 631.4877556 608.35254624 609.48866278 586.35510349 587.48904705 C585.28472763 586.41856582 585.28472763 586.41856582 584.19272802 585.3264587 C572.60400194 573.73658763 561.01531309 562.14667934 549.42662739 550.5567679 C503.44712312 504.57240555 457.46507629 458.59058721 411.48071289 412.61108398 C399.88955731 401.02114953 388.29840678 389.43121003 376.7072916 377.84123516 C375.99363934 377.12765335 375.27998708 376.41407153 374.54470899 375.67886603 C352.56297332 353.69928544 330.58185746 331.71908517 308.60141659 309.73820972 C307.56688128 308.70365404 307.56688128 308.70365404 306.51144627 307.64819824 C291.37414189 292.51058143 276.23699807 277.37280407 261.09999917 262.2348818 C255.68439816 256.81895164 250.26878912 251.40302952 244.85317777 245.98710969 C243.50585543 244.63970996 242.15853376 243.29230956 240.81121276 241.94490848 C220.64851583 221.78101651 200.48471131 201.61823268 180.32015537 181.45619979 C179.65842532 180.79455254 178.99669527 180.13290529 178.3149128 179.45120811 C177.65439778 178.79077578 176.99388276 178.13034344 176.31335213 177.449898 C154.07217871 155.21147826 131.8328833 132.97118198 109.59572888 110.72874346 C107.21147248 108.34393467 104.82720824 105.95913372 102.44293785 103.57433891 C101.56519168 102.69639743 101.56519168 102.69639743 100.66971326 101.80071975 C91.37735734 92.50638596 82.08332112 83.21373427 72.78859789 73.92176795 C63.66513941 64.80094481 54.54345029 55.67835539 45.42368424 46.55384022 C40.53864584 41.66635546 35.65280875 36.77967569 30.76469976 31.89526173 C26.32889768 27.46266032 21.89535214 23.02781551 17.46369192 18.59107322 C15.85960963 16.98597345 14.25466657 15.38173339 12.64881575 13.77840299 C10.48796595 11.62070747 8.33015086 9.4600244 6.17314154 7.2984907 C5.53844832 6.66618823 4.90375511 6.03388575 4.24982876 5.3824226 C0 1.11415571 0 1.11415571 0 0 Z " fill="#FEFEFE" transform="translate(1029,0)"/>
<path d="M0 0 C318.12 0 636.24 0 964 0 C957.2499991 7.87500105 957.2499991 7.87500105 954.73488415 10.39025968 C954.15759011 10.97001223 953.58029606 11.54976477 952.98550826 12.14708558 C952.06190727 13.06710045 952.06190727 13.06710045 951.11964768 14.00570148 C950.44753645 14.67921503 949.77542521 15.35272858 949.08294697 16.04665164 C946.83055227 18.30252559 944.57461716 20.55482481 942.31868267 22.80715847 C940.67968521 24.44719917 939.04090686 26.08745885 937.40232787 27.72791764 C933.35734898 31.77639137 929.31004605 35.82253113 925.26177141 39.86770903 C920.37837501 44.74763673 915.49790515 49.63048741 910.61751914 54.51342546 C901.49701102 63.63853324 892.37412972 72.76126504 883.24995613 81.8827076 C874.00329411 91.12661876 864.7577179 100.37161391 855.51346588 109.61793518 C854.92968082 110.20184941 854.34589577 110.78576364 853.74442026 111.38737224 C851.36678741 113.76553835 848.98916229 116.14371217 846.61154697 118.5218958 C824.4644296 140.67430311 802.31484682 162.82424377 780.16368675 184.97260857 C779.50726362 185.62894891 778.85084048 186.28528925 778.17452574 186.96151869 C777.18832327 187.94759676 777.18832327 187.94759676 776.18219752 188.9535956 C756.16436518 208.96890629 736.14746711 228.98515073 716.13149452 249.00232124 C714.79192266 250.34197059 713.45235063 251.68161977 712.11277844 253.02126879 C706.72986428 258.40449341 701.34695422 263.78772214 695.96405014 269.17095686 C680.91653653 284.21938752 665.86884968 299.26764493 650.8210268 314.31576633 C650.13576634 315.00104045 649.45050587 315.68631456 648.74447994 316.39235455 C626.90604209 338.23120173 605.06683603 360.06928052 583.22710705 381.90683651 C582.51864126 382.61523205 581.81017548 383.32362758 581.08024103 384.05348965 C569.57463411 395.55795158 558.06898996 407.06237628 546.56334267 418.56679784 C500.9132145 464.21206792 455.26563037 509.85988056 409.62036133 555.51000977 C398.11464776 567.01694446 386.60892914 578.52387411 375.10317516 590.03076839 C374.39477862 590.73923538 373.68638208 591.44770237 372.95651898 592.17763806 C351.13665334 613.99965878 329.31616801 635.8210597 307.49500751 657.64178562 C306.46796914 658.66880363 306.46796914 658.66880363 305.4201825 659.71656947 C290.39256015 674.74387939 275.36477725 689.77102875 260.33684944 704.79803319 C254.96027341 710.17428006 249.58370543 715.55053497 244.20713974 720.92679218 C242.86953095 722.26432358 241.53192149 723.60185431 240.19431136 724.93938437 C220.17696921 744.95553147 200.16073521 764.97278616 180.14525215 784.99079228 C179.15999648 785.97617214 179.15999648 785.97617214 178.15483665 786.98145866 C177.49920565 787.63717235 176.84357464 788.29288605 176.16807602 788.96846985 C154.09132646 811.0479731 132.01270035 833.12559833 109.93193199 855.20108258 C107.56445699 857.56800519 105.19698983 859.93493565 102.82952881 862.30187225 C102.2484887 862.88278215 101.6674486 863.46369205 101.06880121 864.06220528 C91.84203465 873.28699397 82.6169502 882.51346295 73.39255111 891.74061896 C64.33804586 900.79775954 55.28177434 909.85313074 46.22357707 918.90657891 C41.37161876 923.75609086 36.52046546 928.60640147 31.67157795 933.45898401 C27.27121252 937.86255013 22.86860373 942.26385962 18.46409742 946.66328388 C16.87066699 948.25569684 15.27809625 949.84897056 13.68643519 951.44315205 C11.54443416 953.58830739 9.39944571 955.73042781 7.2536065 957.87174267 C6.6259188 958.50182111 5.9982311 959.13189955 5.35152255 959.78107128 C1.11415571 964 1.11415571 964 0 964 C0 645.88 0 327.76 0 0 Z " fill="#FEFEFE" transform="translate(0,0)"/>
<path d="M0 0 C15.25578068 7.58254817 26.96202037 20.04963929 38.54935609 32.2463586 C42.90405742 36.79598944 47.4475436 41.15452945 51.96834207 45.5378451 C61.29543254 54.59186614 70.4661648 63.79007593 79.55596432 73.08181209 C88.74321534 82.47200142 97.99902656 91.78605349 107.34388432 101.0194971 C108.23506064 101.90018918 108.23506064 101.90018918 109.14424053 102.79867302 C111.56494199 105.19042311 113.9861485 107.58166039 116.40799433 109.97225172 C138.86987021 132.14436299 161.17155669 154.471155 183.3737782 176.90307063 C204.75604762 198.50627869 226.19386535 220.05143215 247.71183285 241.5195219 C249.06706715 242.8717785 250.42229406 244.22404251 251.7775136 245.5763139 C257.22455155 251.01133984 262.67194342 256.44601088 268.11980429 261.88021196 C283.34484856 277.06745464 298.55883025 292.26575141 313.76436219 307.47252959 C314.45657426 308.16479217 315.14878632 308.85705475 315.86197451 309.57029498 C337.89268768 331.60417249 359.87464097 353.68603598 381.8226603 375.80227393 C382.88927467 376.87704885 382.88927467 376.87704885 383.97743681 377.97353639 C395.52237505 389.60714426 407.0646064 401.24343729 418.60665446 412.87991248 C464.39311489 459.04060481 510.32214068 505.05412254 556.39068303 550.93328876 C559.3031147 553.83381949 562.21553082 556.73436583 565.12794266 559.63491647 C565.84804328 560.35208371 566.5681439 561.06925095 567.31006575 561.80815053 C575.28586316 569.75153171 583.26115523 577.69541999 591.23583779 585.63992042 C591.95108062 586.35243808 592.66632345 587.06495574 593.4032403 587.79906484 C631.37598599 625.62824381 669.23430125 663.5714714 707.04918764 701.55840469 C712.47061945 707.00448494 717.89237367 712.45024424 723.31415526 717.89597627 C725.33595107 719.92677148 727.35763572 721.95767731 729.3793181 723.98858545 C744.1408659 738.81652248 758.9192922 753.62708897 773.7434865 768.39241833 C774.40999144 769.05628011 775.07649639 769.72014189 775.76319845 770.40412069 C779.11840391 773.74579654 782.47392479 777.0871555 785.82957997 780.42837975 C810.12883313 804.62322352 834.34363769 828.89751527 858.41530852 853.31895493 C860.79296193 855.73044765 863.17100478 858.14155563 865.54935155 860.55236453 C866.13295095 861.14400905 866.71655036 861.73565358 867.3178346 862.34522672 C876.51823968 871.66796016 885.80078498 880.90399549 895.12156061 890.10621875 C904.3111347 899.18258575 913.40389191 908.3475854 922.40493769 917.61101885 C927.21383783 922.5552121 932.05431225 927.44914365 937.01706914 932.2394806 C955.88289743 950.5062196 971.769762 967.57062869 972.25765881 995.12004871 C971.82352263 1021.38119655 957.51107087 1037.95847463 939.47631747 1055.51911821 C938.04874397 1056.8946825 936.62114211 1058.27022139 935.19072513 1059.64282857 C930.12708029 1064.51242629 925.22160212 1069.53198633 920.31329476 1074.55729354 C911.14301704 1083.93758559 901.85770297 1093.19537018 892.50088582 1102.38929004 C883.03745275 1111.68886788 873.63272599 1121.04256342 864.29232678 1130.46576137 C863.40312023 1131.36273953 863.40312023 1131.36273953 862.49594992 1132.27783847 C860.08123222 1134.71403896 857.66691886 1137.15063921 855.25311475 1139.58774489 C832.83895512 1162.21822033 810.30280021 1184.72328788 787.68538556 1207.15050334 C765.90014073 1228.75279628 744.1607297 1250.39938676 722.48280606 1272.10939998 C721.11869246 1273.47540654 719.75457373 1274.84140798 718.39044989 1276.20740431 C712.90810394 1281.69741484 707.42605567 1287.1877225 701.94439394 1292.67841621 C686.62349709 1308.02428439 671.2939632 1323.36150774 655.95786271 1338.69218177 C655.25964746 1339.39015547 654.56143222 1340.08812916 653.84205893 1340.80725357 C631.61096012 1363.02946153 609.34243582 1385.21376719 587.04703698 1407.37145538 C586.32445782 1408.08957766 585.60187867 1408.80769994 584.85740317 1409.5475835 C573.1245686 1421.2077704 561.38957207 1432.86578114 549.65443749 1444.52365317 C503.09958636 1490.77227158 456.65529378 1537.12887176 410.31402287 1583.59149188 C407.38437295 1586.52875561 404.45471108 1589.46600742 401.52504785 1592.40325787 C400.80068909 1593.12949397 400.07633033 1593.85573006 399.33002131 1594.60397331 C391.3073973 1602.64734454 383.28442824 1610.69037147 375.2610415 1618.73298187 C374.5414846 1619.45427765 373.82192771 1620.17557344 373.08056606 1620.91872668 C334.89878918 1659.19201821 296.63376302 1697.38182303 258.33635523 1735.53938665 C252.84740291 1741.00829698 247.35866032 1746.4774178 241.86991349 1751.94653437 C239.82298174 1753.98609099 237.77596742 1756.02556472 235.72894859 1758.06503395 C220.77180861 1772.9676677 205.8269404 1787.88232928 190.9143115 1802.8295154 C190.24316868 1803.50220842 189.57202585 1804.17490143 188.88054536 1804.86797908 C185.50190191 1808.25457537 182.1234738 1811.64138642 178.74513034 1815.02828198 C154.30525221 1839.52988061 129.80692068 1863.97037188 105.20157857 1888.30588677 C102.77468874 1890.706668 100.34807639 1893.10772932 97.92167935 1895.50900859 C97.02845873 1896.39289588 97.02845873 1896.39289588 96.11719325 1897.29463947 C86.71334843 1906.60345074 77.37211969 1915.97255142 68.05560133 1925.36867537 C58.87937933 1934.62061301 49.63855057 1943.80362022 40.32634022 1952.91871069 C35.3517604 1957.79146909 30.40987955 1962.68844762 25.54857994 1967.67445692 C-8.75170365 2002.7464977 -8.75170365 2002.7464977 -28.80730739 2003.25145168 C-52.36711207 2002.68149754 -69.63743109 1981.58441816 -84.83448929 1966.00036286 C-89.77392722 1960.94280164 -94.82148889 1955.99818606 -99.87292921 1951.05292348 C-109.30630706 1941.81166249 -118.6510882 1932.48533447 -127.94929996 1923.10824794 C-137.3616231 1913.61667702 -146.81311984 1904.1668267 -156.31432262 1894.76419849 C-156.91617596 1894.16853126 -157.51802929 1893.57286404 -158.13812061 1892.95914629 C-160.58984174 1890.53287572 -163.04183601 1888.10688164 -165.49417965 1885.68124026 C-190.34314629 1861.10254425 -215.0722889 1836.40587283 -239.75538789 1811.66073835 C-243.16197167 1808.24566017 -246.56872331 1804.83074952 -249.97564831 1801.41601176 C-250.65241989 1800.73768313 -251.32919147 1800.05935451 -252.02647128 1799.36047048 C-267.0481848 1784.30577919 -282.10638493 1769.28780366 -297.17214693 1754.27721007 C-299.23615534 1752.22075094 -301.30008081 1750.16420861 -303.36397922 1748.10763909 C-308.89713574 1742.59414097 -314.43035466 1737.08070549 -319.96371233 1731.56740924 C-358.57589057 1693.09431097 -397.15043615 1654.58378611 -435.64693466 1615.99492187 C-436.37210297 1615.26802852 -437.09727128 1614.54113517 -437.84441439 1613.79221474 C-445.93012607 1605.68720939 -454.01528756 1597.58165529 -462.10024316 1589.47589573 C-462.83014609 1588.74411602 -463.56004903 1588.01233632 -464.31207023 1587.25838147 C-470.27524115 1581.27986775 -470.27524115 1581.27986775 -473.16733609 1578.38025377 C-519.84239631 1531.58402308 -566.63030683 1484.9036428 -613.51898494 1438.32147235 C-625.3324995 1426.58506512 -637.14567572 1414.84831797 -648.95681014 1403.10951537 C-649.68415889 1402.38662717 -650.41150764 1401.66373896 -651.16089726 1400.91894505 C-673.59344634 1378.62309449 -695.99434785 1356.29584661 -718.36249366 1333.93538398 C-719.06520489 1333.23291962 -719.76791612 1332.53045526 -720.49192163 1331.80670411 C-735.92098612 1316.38239916 -751.34219845 1300.95026338 -766.75626986 1285.51097583 C-772.27231347 1279.98601194 -777.78885274 1274.46154301 -783.30559769 1268.93727943 C-784.67790602 1267.56308035 -786.05018286 1266.18884984 -787.42242811 1264.81458777 C-809.24655104 1242.95879012 -831.14170229 1221.17590877 -853.07300841 1199.42771422 C-875.78941729 1176.89963673 -898.40883835 1154.2780816 -920.92314923 1131.54798379 C-923.34683588 1129.1018026 -925.77093155 1126.65602752 -928.19534984 1124.21057147 C-928.79026682 1123.61041852 -929.38518379 1123.01026556 -929.99812856 1122.39192615 C-939.37853858 1112.93354537 -948.84132394 1103.56245404 -958.34247434 1094.22553073 C-967.70954522 1085.01675567 -976.98012565 1075.71910224 -986.1591679 1066.32282324 C-991.06330819 1061.30754824 -995.99779122 1056.33887389 -1001.0585289 1051.48120275 C-1019.09743345 1034.09483758 -1035.36764876 1017.57747102 -1036.85367847 991.35708163 C-1037.22047197 968.20661392 -1028.164843 952.53304304 -1012.59514714 936.09585029 C-1008.16476819 931.54684411 -1003.61461188 927.1287826 -999.04560939 922.71968638 C-994.56559263 918.37124499 -990.23432429 913.87630031 -985.88433083 909.39856947 C-976.89323613 900.15209471 -967.78693742 891.02781768 -958.6088058 881.96728153 C-949.32611314 872.80269535 -940.10203009 863.58441136 -930.94199481 854.29717464 C-930.36054307 853.70772837 -929.77909133 853.1182821 -929.18001984 852.51097382 C-926.81149274 850.10952764 -924.44335044 847.70770288 -922.07569762 845.30539473 C-898.11647904 820.99584473 -873.9962307 796.85105578 -849.80900296 772.76860742 C-846.47402385 769.44796582 -843.13929495 766.12707315 -839.80482331 762.80592198 C-839.1423906 762.14613898 -838.47995789 761.48635599 -837.79745147 760.80657957 C-823.07987165 746.14559627 -808.41386997 731.43345704 -793.75830078 716.71051941 C-791.74903225 714.69201904 -789.73965218 712.67362977 -787.7302381 710.65527429 C-782.34283755 705.24386739 -776.95555653 699.83234151 -771.56849795 694.42059418 C-733.98907655 656.67011502 -696.35914176 618.97055675 -658.62173095 581.37798042 C-657.91127689 580.67023488 -657.20082282 579.96248934 -656.46883985 579.23329696 C-648.54756939 571.34232477 -640.62551113 563.4521437 -632.70313797 555.56227861 C-631.9879482 554.85002283 -631.27275844 554.13776705 -630.53589626 553.40392777 C-627.64363244 550.52353868 -624.75136791 547.64315031 -621.85905336 544.76281217 C-576.12538977 499.21827131 -530.54422633 453.52646983 -485.09271541 407.7003786 C-473.64041671 396.15387043 -462.18770514 384.60777275 -450.73243347 373.06421394 C-450.02695504 372.35328869 -449.32147661 371.64236345 -448.59462005 370.90989502 C-426.82705425 348.97535693 -405.01940215 327.08134244 -383.16899314 305.22932739 C-382.13897275 304.19922196 -382.13897275 304.19922196 -381.08814387 303.14830632 C-366.00858597 288.06836457 -350.91895547 272.99853479 -335.82015119 257.93786443 C-330.41676745 252.54800785 -325.01399009 247.15754349 -319.61144976 241.76684152 C-318.26759222 240.42595819 -316.92369389 239.08511574 -315.5797546 237.74431434 C-294.22974164 216.44370267 -272.97191002 195.05395887 -251.7574579 173.61840887 C-229.77537672 151.40900992 -207.67396801 129.32485739 -185.43382738 107.3738061 C-183.0377111 105.00791485 -180.64210796 102.64150528 -178.24690738 100.274687 C-177.65909875 99.69393724 -177.07129012 99.11318748 -176.4656691 98.51483925 C-167.22334304 89.37774955 -158.09273934 80.13706606 -149.00527696 70.84620674 C-140.02899828 61.67375143 -130.93990739 52.62681953 -121.72493787 43.69407881 C-116.81040076 38.92399666 -111.96250584 34.11819211 -107.24577466 29.15149133 C-78.82244211 -0.66222565 -40.492896 -16.60862076 0 0 Z M-33.77289536 34.95383553 C-34.41513619 35.59858523 -35.05737703 36.24333494 -35.7190797 36.90762252 C-36.39950771 37.58677244 -37.07993572 38.26592236 -37.78098275 38.96565259 C-40.09663303 41.27820166 -42.40865375 43.59434717 -44.72075286 45.91044635 C-46.38961353 47.5785684 -48.0586936 49.24647098 -49.72797501 50.914172 C-53.38702213 54.57077684 -57.04448899 58.22895492 -60.70061854 61.88847667 C-66.17399428 67.36691088 -71.65023727 72.84247223 -77.12706431 78.31745587 C-86.45881216 87.64623106 -95.78817827 96.97738488 -105.11627498 106.30981082 C-114.57555971 115.77346639 -124.03592776 125.23603703 -133.49763599 134.69726962 C-134.09418682 135.29379176 -134.69073765 135.89031391 -135.30536579 136.50491248 C-138.34692963 139.54631995 -141.38851126 142.58770963 -144.43009917 145.62909303 C-166.47252703 167.6701116 -188.51253014 189.7135535 -210.55125919 211.75827045 C-232.38395491 233.59688395 -254.21768103 255.43446644 -276.05279651 277.27066058 C-276.73032724 277.94822572 -277.40785797 278.62579086 -278.10591993 279.32388828 C-284.29390815 285.51218969 -290.48190912 291.70047835 -296.66992539 297.88875172 C-312.05424332 313.27370913 -327.43840129 328.65882648 -342.82245078 344.04405231 C-343.52309035 344.74474519 -344.22372992 345.44543808 -344.94560099 346.16736409 C-379.04702432 380.2714104 -413.14660485 414.3772991 -447.24603572 448.48333759 C-459.08275002 460.3223435 -470.91947246 472.16134128 -482.75622859 484.00030536 C-483.49032209 484.73453581 -484.22441559 485.46876626 -484.98075435 486.22524611 C-519.09205196 520.34288507 -553.20465656 554.45921711 -587.31759945 588.57521101 C-589.53160285 590.78941247 -591.74560568 593.0036145 -593.9596084 595.21781664 C-608.63163384 609.89116183 -623.30368183 624.56448447 -637.97574492 639.23779202 C-667.17076228 668.43528603 -696.36564712 697.63291256 -725.56044095 726.8306301 C-726.95084638 728.22117476 -728.3412519 729.61171934 -729.73165751 731.00226382 C-792.34316927 793.62003053 -854.95313909 856.23933887 -917.56244197 918.85931415 C-918.14882527 919.44579738 -918.73520857 920.03228062 -919.33936106 920.63653607 C-948.66764028 949.96981599 -977.99583156 979.30318382 -1007.32391658 1008.6366579 C-1003.20525877 1013.54518526 -998.92962524 1018.17347985 -994.39111736 1022.69365561 C-993.71332648 1023.37272458 -993.03553559 1024.05179355 -992.33720559 1024.75144037 C-990.06545529 1027.02625323 -987.79016038 1029.29748673 -985.51486698 1031.56875533 C-983.86192307 1033.22243901 -982.20919867 1034.87634212 -980.55667403 1036.53044478 C-976.47706381 1040.61280535 -972.39512796 1044.69283003 -968.31222176 1048.77189396 C-963.38710083 1053.69264861 -958.46491388 1058.61633422 -953.5428139 1063.54011034 C-944.34435221 1072.74153691 -935.14352435 1081.94059413 -925.94141116 1091.13836879 C-916.61572735 1100.45967517 -907.29113546 1109.78207183 -897.96787753 1119.10580463 C-897.08472994 1119.98899526 -897.08472994 1119.98899526 -896.18374098 1120.89002813 C-893.18165536 1123.89227012 -890.17958752 1126.89452991 -887.17752597 1129.89679597 C-865.44554731 1151.63018233 -843.71114967 1173.36114826 -821.97547069 1195.09083385 C-800.44883395 1216.61154902 -778.92323164 1238.13329799 -757.39901653 1259.6564352 C-756.73066435 1260.32475296 -756.06231217 1260.99307073 -755.37370689 1261.68164055 C-749.26937883 1267.78565541 -743.16506352 1273.88968303 -737.06076352 1279.99372595 C-721.88586196 1295.1679881 -706.71080044 1310.34209028 -691.53563037 1325.5160839 C-690.8445713 1326.20708965 -690.15351224 1326.8980954 -689.44151198 1327.61004072 C-655.82188657 1361.22704434 -622.20041842 1394.84220482 -588.57879939 1428.45721454 C-576.91071224 1440.12301004 -565.24263324 1451.78881368 -553.57458797 1463.45465106 C-552.85093892 1464.17816316 -552.12728988 1464.90167525 -551.38171207 1465.64711196 C-517.74380497 1499.27867549 -484.10720665 1532.91154788 -450.47094607 1566.54475816 C-448.2873701 1568.72813607 -446.10379356 1570.91151342 -443.92021691 1573.09489065 C-429.44959362 1587.56419416 -414.9789929 1602.03352023 -400.50840729 1616.50286141 C-371.71530475 1645.29348742 -342.92206965 1674.08398084 -314.12874347 1702.87438318 C-312.75751685 1704.24547056 -311.38629032 1705.61655804 -310.01506389 1706.9876456 C-248.28218879 1768.71426727 -186.54777153 1830.43934648 -124.81268611 1892.16375751 C-124.23459828 1892.74174541 -123.65651045 1893.3197333 -123.0609048 1893.91523599 C-94.14866952 1922.82247077 -65.23634624 1951.72961753 -36.32391658 1980.6366579 C-31.39872662 1976.50474629 -26.75729725 1972.21249418 -22.22203466 1967.65897447 C-21.5381047 1966.9763226 -20.85417474 1966.29367072 -20.14951963 1965.59033243 C-17.85813762 1963.30201328 -15.57033525 1961.010149 -13.28249755 1958.7182867 C-11.61687589 1957.05340479 -9.95103478 1955.38874239 -8.28499412 1953.72427977 C-4.17298331 1949.61501943 -0.06330855 1945.50343325 4.04540563 1941.39087693 C9.00188951 1936.43002693 13.96130418 1931.47211072 18.92080947 1926.51428161 C28.18902082 1917.2490352 37.45486274 1907.98142251 46.71942219 1898.7125246 C56.10845601 1889.31911341 65.49858005 1879.92679407 74.89004025 1870.53580875 C75.48310359 1869.9427741 76.07616693 1869.34973945 76.68720189 1868.73873405 C79.71121255 1865.71487977 82.735241 1862.69104327 85.75927573 1859.66721305 C107.6504345 1837.77746199 129.53917281 1815.88529191 151.42663083 1793.99184055 C173.10364687 1772.30890296 194.7816967 1750.62699977 216.46113476 1728.9464838 C217.13430218 1728.27328197 217.80746959 1727.60008014 218.50103602 1726.90647826 C224.64934333 1720.75785775 230.7976634 1714.60924999 236.94599877 1708.46065754 C252.23037922 1693.17563767 267.51459971 1677.89045785 282.79871163 1662.60516948 C283.49473257 1661.90909523 284.1907535 1661.21302097 284.90786598 1660.49585356 C318.76897723 1626.6321205 352.62824535 1592.76654471 386.48736272 1558.90081805 C398.23789536 1547.14799376 409.98843614 1535.39517762 421.73901066 1523.6423952 C422.46777799 1522.91349093 423.19654531 1522.18458666 423.94739649 1521.43359438 C457.82314877 1487.55149854 491.70020989 1453.67071148 525.57760891 1419.79026216 C527.77683489 1417.59083812 529.97606031 1415.39141351 532.17528561 1413.19198879 C546.74961291 1398.6163417 561.32396279 1384.04071718 575.89832777 1369.46510777 C604.89793464 1340.46302436 633.89740893 1311.46080839 662.89679214 1282.45850134 C664.2778323 1281.07732195 665.65887254 1279.69614265 667.03991288 1278.31496344 C729.21472792 1216.13389497 791.38800049 1153.95128434 853.5606049 1091.76800555 C854.14279053 1091.18571999 854.72497617 1090.60343442 855.32480379 1090.00350384 C884.44199114 1060.88131598 913.55909047 1031.75904013 942.67608342 1002.6366579 C938.55758833 997.72846199 934.28226244 993.10001813 929.74443487 988.57966018 C928.72793489 987.56105673 928.72793489 987.56105673 927.69089955 986.52187543 C925.41956905 984.24706529 923.14469751 981.97583022 920.86982712 979.70456046 C919.21718624 978.05087635 917.56476445 976.39697325 915.91254205 974.74287102 C911.83367734 970.66051129 907.7524883 966.58048572 903.6703278 962.50142184 C898.74609816 957.58066075 893.82479488 952.65697685 888.90357558 947.73320546 C879.70674208 938.53177219 870.50753525 929.33271502 861.30703625 920.13494701 C851.9829715 910.81363307 842.65999251 901.49123521 833.33833775 892.16751117 C832.45534088 891.28432054 832.45534088 891.28432054 831.55450568 890.38328767 C829.15700097 887.98524969 826.75950398 885.58720399 824.36201678 883.18914849 C802.02958151 860.85142323 779.69468076 838.51616468 757.35820279 816.18248195 C756.69628235 815.5206443 756.03436191 814.85880666 755.35238327 814.17691333 C754.68940893 813.51402192 754.02643459 812.85113051 753.34337012 812.16815148 C733.15802271 791.98532571 712.97360954 771.80156619 692.79012189 751.6168806 C691.43934722 750.26602845 690.08857239 748.91517647 688.7377974 747.56432465 C683.30986766 742.13608444 677.88194202 736.70784014 672.45402236 731.27958984 C657.28065926 716.1053097 642.10712292 700.93120279 626.93345055 685.7572319 C626.24245845 685.06622615 625.55146634 684.37522039 624.83953508 683.66327508 C602.81836952 661.64170018 580.79643573 639.62089368 558.77397904 617.60060996 C558.05958369 616.88628486 557.34518834 616.17195976 556.60914464 615.43598844 C545.00723584 603.83522463 533.40528981 592.23449804 521.80334063 580.63377461 C475.77123054 534.60652259 429.74166446 488.57672802 383.7144135 442.54461688 C372.11244749 430.94142974 360.51047643 419.33824766 348.90847001 407.73510093 C348.19414744 407.02070791 347.47982487 406.3063149 346.74385617 405.57027361 C324.74145916 383.56572152 302.73844246 361.56178923 280.7347506 339.55853194 C280.04433088 338.86812581 279.35391116 338.17771967 278.64256962 337.46639213 C263.48923932 322.31337426 248.33574846 307.16051694 233.1821127 292.00780454 C227.76056052 286.58658152 222.33901638 281.16535046 216.91747454 275.74411709 C215.5686761 274.39539604 214.21987699 273.04667566 212.87107721 271.69795596 C192.68624954 251.51432334 172.50253003 231.32958314 152.31956145 211.1440915 C151.65722703 210.48167429 150.99489261 209.81925708 150.31248746 209.13676662 C149.65136921 208.47556569 148.99025097 207.81436477 148.30909884 207.13312745 C126.04758337 184.86885829 103.78419135 162.60646715 81.51865708 140.34621699 C79.13137204 137.95948433 76.74409484 135.57274383 74.35682377 133.18599719 C73.77092171 132.60022533 73.18501964 132.01445347 72.58136296 131.41093095 C63.2773767 122.10892257 53.97507256 112.80523388 44.67345378 103.50085819 C35.54315665 94.36792573 26.41109324 85.23676263 17.27710409 76.10752259 C12.38454412 71.21740898 7.49278914 66.32649668 2.60329997 61.43331249 C-1.83390658 56.99290526 -6.27335653 52.55475458 -10.71470396 48.11848921 C-12.32147078 46.51273988 -13.92737788 44.90612977 -15.53237534 43.2986119 C-17.69231292 41.13552004 -19.85523808 38.97546285 -22.01901385 36.81621147 C-22.96845644 35.86318276 -22.96845644 35.86318276 -23.93707969 34.89090095 C-28.85687323 29.91918803 -28.85687323 29.91918803 -33.77289536 34.95383553 Z " fill="#020202" transform="translate(1032.3239165814593,1.3633421016857028)"/>
<path d="M0 0 C29.7 0 59.4 0 90 0 C90 101.64 90 203.28 90 308 C220.02 308 350.04 308 484 308 C484 206.36 484 104.72 484 0 C513.37 0 542.74 0 573 0 C573 250.47 573 500.94 573 759 C543.63 759 514.26 759 484 759 C484 634.92 484 510.84 484 383 C353.98 383 223.96 383 90 383 C90 507.08 90 631.16 90 759 C60.3 759 30.6 759 0 759 C0 508.53 0 258.06 0 0 Z " fill="#010101" transform="translate(713,646)"/>
</svg>
